<?xml version="1.0" standalone="no"?>
<!DOCTYPE svg PUBLIC "-//W3C//DTD SVG 20010904//EN"
 "http://www.w3.org/TR/2001/REC-SVG-20010904/DTD/svg10.dtd">
<svg version="1.0" xmlns="http://www.w3.org/2000/svg"
 width="128.000000pt" height="128.000000pt" viewBox="0 0 128.000000 128.000000"
 preserveAspectRatio="xMidYMid meet">
<metadata>
Created by potrace 1.11, written by Peter Selinger 2001-2013
</metadata>
<g transform="translate(0.000000,128.000000) scale(0.100000,-0.100000)"
fill="#000000" stroke="none">
<path d="M629 1050 c-60 -17 -128 -91 -169 -183 -16 -34 -25 -42 -76 -59 -77
-26 -91 -40 -20 -20 31 8 58 13 61 10 14 -14 -11 -37 -45 -43 -66 -11 -158
-61 -180 -97 -33 -54 -25 -113 22 -165 l20 -21 -39 9 c-21 5 -41 9 -44 9 -15
0 -39 71 -39 112 0 64 49 133 125 176 34 19 -6 14 -50 -7 -96 -44 -141 -146
-100 -225 14 -26 14 -28 -2 -22 -14 6 -14 3 3 -15 63 -69 256 -112 514 -113
288 -1 472 38 555 118 52 50 58 84 23 136 -29 41 -116 87 -194 101 -73 14
-104 25 -104 39 0 16 49 12 130 -11 144 -40 230 -106 230 -177 0 -61 -33 -101
-136 -169 -14 -9 -10 -9 14 0 88 35 152 107 152 171 0 47 -37 104 -93 141 -58
39 -179 82 -261 91 -49 6 -55 9 -71 43 -58 122 -152 193 -226 171z m85 -59
c55 -34 107 -123 145 -245 30 -96 28 -161 -7 -227 -33 -64 -45 -68 -218 -68
-108 -1 -111 0 -137 26 -56 60 -70 139 -42 247 42 159 132 286 204 286 13 0
38 -9 55 -19z m328 -283 c68 -31 128 -84 128 -113 0 -19 -31 -50 -70 -70 l-31
-16 14 28 c8 15 12 35 9 43 -10 32 -58 71 -111 91 -59 22 -71 32 -71 63 0 16
5 17 32 12 18 -3 63 -21 100 -38z m-638 -13 c-3 -8 -21 -19 -40 -25 -19 -7
-50 -26 -69 -45 -50 -46 -49 -91 2 -136 l37 -32 -29 7 c-78 18 -111 114 -60
175 38 44 173 93 159 56z m615 -78 c59 -29 71 -49 51 -85 -12 -21 -29 -31 -80
-44 -36 -9 -75 -17 -87 -17 l-22 -1 20 44 c11 25 20 66 21 91 2 44 4 46 28 40
14 -3 45 -16 69 -28z m-616 -33 c3 -30 15 -71 27 -91 11 -19 19 -38 16 -40 -3
-3 -29 0 -58 7 -57 14 -108 55 -108 88 0 26 27 57 65 77 46 23 52 19 58 -41z"/>
<path d="M47 672 c-22 -25 -47 -86 -47 -117 0 -77 90 -156 225 -198 134 -41
392 -55 530 -29 82 16 226 54 222 59 -3 2 -44 -1 -93 -7 -135 -15 -414 -12
-524 5 -277 45 -376 130 -311 265 21 45 21 48 -2 22z"/>
<path d="M1165 413 c-66 -36 -203 -84 -309 -107 -260 -58 -530 -39 -725 50
-41 19 -77 34 -80 34 -19 0 102 -74 163 -99 120 -50 216 -64 395 -58 205 6
352 45 501 133 84 50 127 86 55 47z"/>
</g>
</svg>
